External Loads File
version=1
nRows=86
nColumns=13
Range=5.000000e-03-10 seconds
endheader
time 	forceRightX 	forceRightY 	forceRightZ 	pointRightX 	pointRightY 	pointRightZ 	forceLeftX 	forceLeftY 	forceLeftZ 	pointLeftX 	pointLeftY 	pointLeftZ 		
0.005000 37.820019 114.993906 -0.000000 0.338346 0.411458 -0.125789 56.256757 161.077155 -0.000000 0.054186 0.221292 -0.360615
0.010000 37.388142 115.209604 -0.000000 0.338315 0.411495 -0.125785 55.933608 161.317257 -0.000000 0.054202 0.221245 -0.360620
0.015000 36.967989 115.419057 -0.000000 0.338275 0.411554 -0.125772 55.710599 161.587010 -0.000000 0.054221 0.221199 -0.360626
0.020000 36.584375 115.642398 -0.000000 0.338045 0.411561 -0.125339 55.609658 161.884263 -0.000000 0.054229 0.221151 -0.360620
0.025000 34.374953 116.440534 -0.000000 0.338052 0.411126 -0.125327 53.006125 163.063757 -0.000000 0.053494 0.213380 -0.353798
0.030000 36.007126 116.053582 -0.000000 0.338000 0.411799 -0.125329 55.815375 162.430448 -0.000000 0.054203 0.221031 -0.360519
0.035000 35.748154 116.188354 -0.000000 0.337970 0.411916 -0.125332 55.979288 162.620227 -0.000000 0.054247 0.220972 -0.360534
0.040000 35.517532 116.256406 -0.000000 0.337932 0.412006 -0.125321 56.123992 162.702882 -0.000000 0.054290 0.220914 -0.360559
0.045000 35.326179 116.279293 -0.000000 0.337893 0.412091 -0.125321 56.178514 162.643977 -0.000000 0.054354 0.220869 -0.360576
0.050000 35.202673 116.274348 -0.000000 0.337854 0.412079 -0.125331 56.115780 162.402819 -0.000000 0.054415 0.220793 -0.360605
0.055000 35.095878 116.267231 -0.000000 0.337815 0.412152 -0.125328 55.870211 162.009912 -0.000000 0.054470 0.220714 -0.360630
0.060000 35.006190 116.252145 -0.000000 0.337777 0.412258 -0.125345 55.535680 161.523872 -0.000000 0.054535 0.220657 -0.360646
0.065000 34.917837 116.220587 -0.000000 0.337726 0.412366 -0.125320 55.224336 161.043605 -0.000000 0.054590 0.220594 -0.360644
0.070000 34.828376 116.168089 -0.000000 0.337682 0.412452 -0.125338 55.027608 160.655469 -0.000000 0.054656 0.220500 -0.360622
0.075000 34.756180 116.094117 -0.000000 0.337632 0.412520 -0.125347 54.980579 160.392079 -0.000000 0.054701 0.220393 -0.360640
0.080000 34.701168 115.997333 -0.000000 0.337612 0.412613 -0.125359 55.033697 160.228537 -0.000000 0.054753 0.220319 -0.360631
0.085000 34.644047 115.877036 -0.000000 0.337561 0.412677 -0.125359 55.105820 160.108838 -0.000000 0.054800 0.220250 -0.360642
0.090000 34.563866 115.745573 -0.000000 0.337510 0.412737 -0.125366 55.142487 159.996393 -0.000000 0.054843 0.220165 -0.360635
0.095000 34.478446 115.614037 -0.000000 0.337471 0.412812 -0.125360 55.186018 159.884920 -0.000000 0.054868 0.220122 -0.360616
0.100000 34.379153 115.502395 -0.000000 0.337442 0.412874 -0.125358 55.268582 159.817614 -0.000000 0.054896 0.220059 -0.360611
0.105000 34.287656 115.430121 -0.000000 0.337399 0.412939 -0.125367 55.451348 159.840011 -0.000000 0.054912 0.220019 -0.360609
0.110000 34.226886 115.422770 -0.000000 0.337378 0.412991 -0.125400 55.771939 159.997101 -0.000000 0.054920 0.219970 -0.360644
0.115000 34.197323 115.497391 -0.000000 0.337346 0.413087 -0.125399 56.215408 160.320021 -0.000000 0.054920 0.219940 -0.360512
0.120000 34.240790 115.630467 -0.000000 0.337369 0.413116 -0.125468 56.791078 160.765302 -0.000000 0.054909 0.219917 -0.360512
0.125000 34.295498 115.800624 -0.000000 0.337345 0.413154 -0.125458 57.334567 161.276034 -0.000000 0.054902 0.219905 -0.360497
0.130000 34.357214 115.953703 -0.000000 0.337348 0.413146 -0.125454 57.766262 161.740869 -0.000000 0.054903 0.219892 -0.360501
0.135000 34.396788 116.052321 -0.000000 0.337354 0.413157 -0.125459 58.018924 162.100702 -0.000000 0.054899 0.219895 -0.360495
0.140000 34.416069 116.074388 -0.000000 0.337364 0.413180 -0.125469 58.135108 162.358076 -0.000000 0.054890 0.219894 -0.360502
0.145000 34.459855 116.011282 -0.000000 0.337381 0.413152 -0.125492 58.256589 162.551359 -0.000000 0.054876 0.219909 -0.360498
0.150000 34.524146 115.889896 -0.000000 0.337411 0.413140 -0.125481 58.439756 162.743317 -0.000000 0.054881 0.219927 -0.360515
0.155000 34.621363 115.735346 -0.000000 0.337436 0.413114 -0.125471 58.698128 162.929995 -0.000000 0.054871 0.219934 -0.360501
0.160000 34.734205 115.569870 -0.000000 0.337458 0.413100 -0.125476 58.932369 163.055828 -0.000000 0.054876 0.219949 -0.360513
0.165000 34.873177 115.398665 -0.000000 0.337487 0.413047 -0.125476 59.072558 163.041857 -0.000000 0.054868 0.219981 -0.360508
0.170000 34.999051 115.238204 -0.000000 0.337530 0.413013 -0.125465 59.035697 162.881005 -0.000000 0.054875 0.219994 -0.360517
0.175000 35.127286 115.085934 -0.000000 0.337568 0.412981 -0.125454 58.876716 162.586790 -0.000000 0.054879 0.220040 -0.360511
0.180000 35.247143 114.943328 -0.000000 0.337603 0.412922 -0.125470 58.648976 162.206937 -0.000000 0.054873 0.220066 -0.360507
0.185000 35.337922 114.803735 -0.000000 0.337645 0.412885 -0.125463 58.415783 161.792969 -0.000000 0.054877 0.220114 -0.360505
0.190000 35.379261 114.657370 -0.000000 0.337669 0.412833 -0.125455 58.237406 161.394208 -0.000000 0.054863 0.220139 -0.360516
0.195000 35.384774 114.501758 -0.000000 0.337701 0.412776 -0.125446 58.172659 161.045289 -0.000000 0.054868 0.220205 -0.360504
0.200000 35.352750 114.350865 -0.000000 0.337747 0.412711 -0.125463 58.202303 160.773621 -0.000000 0.054876 0.220228 -0.360512
0.205000 35.327577 114.197894 -0.000000 0.337782 0.412631 -0.125446 58.343903 160.549731 -0.000000 0.054855 0.220300 -0.360511
0.210000 35.283923 114.059611 -0.000000 0.337819 0.412574 -0.125459 58.497504 160.360459 -0.000000 0.054859 0.220357 -0.360514
0.215000 35.246996 113.952491 -0.000000 0.337853 0.412520 -0.125455 58.615434 160.175827 -0.000000 0.054848 0.220398 -0.360508
0.220000 35.235627 113.896307 -0.000000 0.337888 0.412476 -0.125446 58.673559 159.996006 -0.000000 0.054834 0.220458 -0.360523
0.225000 35.312721 113.877546 -0.000000 0.337911 0.412226 -0.125440 58.807087 159.835364 -0.000000 0.054814 0.220556 -0.360525
0.230000 35.334856 113.929480 -0.000000 0.337941 0.412156 -0.125430 58.924216 159.831110 -0.000000 0.054796 0.220614 -0.360540
0.235000 35.629172 113.937915 -0.000000 0.337974 0.411073 -0.125422 59.539604 159.834574 -0.000000 0.054785 0.220656 -0.360531
0.240000 35.623096 114.074261 -0.000000 0.338007 0.411023 -0.125411 59.803286 160.096334 -0.000000 0.054756 0.220706 -0.360539
0.245000 35.604624 114.243338 -0.000000 0.338033 0.410974 -0.125396 60.028323 160.388810 -0.000000 0.054729 0.220779 -0.360527
0.250000 35.582545 114.434806 -0.000000 0.338065 0.410894 -0.125388 60.160372 160.643863 -0.000000 0.054697 0.220858 -0.360538
0.255000 35.536324 114.644205 -0.000000 0.338100 0.410833 -0.125390 60.163293 160.847304 -0.000000 0.054658 0.220923 -0.360535
0.260000 35.473120 114.850536 -0.000000 0.338148 0.410761 -0.125386 60.113194 161.014617 -0.000000 0.054625 0.220999 -0.360528
0.265000 35.387893 115.034302 -0.000000 0.338215 0.410664 -0.125427 60.107460 161.196883 -0.000000 0.054584 0.221075 -0.360513
0.270000 35.267970 115.194530 -0.000000 0.338279 0.410570 -0.125439 60.201101 161.454263 -0.000000 0.054548 0.221147 -0.360527
0.275000 35.148213 115.333335 -0.000000 0.338337 0.410470 -0.125440 60.451295 161.810064 -0.000000 0.054520 0.221242 -0.360520
0.280000 35.064221 115.455701 -0.000000 0.338425 0.410368 -0.125463 60.867560 162.265047 -0.000000 0.054479 0.221321 -0.360525
0.285000 35.031367 115.567453 -0.000000 0.338476 0.410265 -0.125448 61.404471 162.797478 -0.000000 0.054442 0.221390 -0.360525
0.290000 34.761773 115.756754 -0.000000 0.338541 0.411237 -0.125461 61.567548 163.504172 -0.000000 0.054411 0.221451 -0.360524
0.295000 34.855571 115.832377 -0.000000 0.338609 0.411163 -0.125456 62.104661 163.975899 -0.000000 0.054382 0.221525 -0.360513
0.300000 34.973673 115.872144 -0.000000 0.338684 0.411086 -0.125465 62.483496 164.306708 -0.000000 0.054367 0.221590 -0.360518
0.305000 35.057796 115.852515 -0.000000 0.338727 0.411015 -0.125466 62.672868 164.480389 -0.000000 0.054352 0.221662 -0.360526
0.310000 35.052269 115.747962 -0.000000 0.338805 0.410966 -0.125486 62.717966 164.518713 -0.000000 0.054337 0.221716 -0.360518
0.315000 34.919825 115.553890 -0.000000 0.338827 0.410904 -0.125471 62.652749 164.451625 -0.000000 0.054350 0.221762 -0.360517
0.320000 34.676348 115.278011 -0.000000 0.338874 0.410869 -0.125460 62.488620 164.275424 -0.000000 0.054357 0.221766 -0.360508
0.325000 34.362277 114.929477 -0.000000 0.338904 0.410831 -0.125452 62.206213 163.963687 -0.000000 0.054399 0.221787 -0.360519
0.330000 34.007821 114.525308 -0.000000 0.338913 0.410809 -0.125448 61.773094 163.508417 -0.000000 0.054419 0.221795 -0.360491
0.335000 33.640410 114.095789 -0.000000 0.338916 0.410819 -0.125440 61.204454 162.942789 -0.000000 0.054448 0.221783 -0.360486
0.340000 33.312988 113.676620 -0.000000 0.338906 0.410819 -0.125429 60.609943 162.327945 -0.000000 0.054497 0.221758 -0.360494
0.345000 33.069245 113.314756 -0.000000 0.338891 0.410847 -0.125438 60.105343 161.744469 -0.000000 0.054539 0.221738 -0.360495
0.350000 32.933350 113.054806 -0.000000 0.338864 0.410879 -0.125442 59.764337 161.263331 -0.000000 0.054586 0.221698 -0.360496
0.355000 32.913582 112.912571 -0.000000 0.338832 0.410908 -0.125459 59.627807 160.929562 -0.000000 0.054637 0.221656 -0.360510
0.360000 32.988181 112.876518 -0.000000 0.338807 0.410951 -0.125460 59.684527 160.770782 -0.000000 0.054675 0.221614 -0.360513
0.365000 33.132546 112.926494 -0.000000 0.338762 0.410992 -0.125466 59.875891 160.777851 -0.000000 0.054710 0.221580 -0.360521
0.370000 33.333967 113.055286 -0.000000 0.338720 0.411047 -0.125460 60.091218 160.894865 -0.000000 0.054736 0.221524 -0.360508
0.375000 33.616520 113.262912 -0.000000 0.338670 0.411086 -0.125461 60.241606 161.026725 -0.000000 0.054758 0.221496 -0.360506
0.380000 33.965804 113.562211 -0.000000 0.338624 0.411142 -0.125449 60.241115 161.122226 -0.000000 0.054768 0.221457 -0.360500
0.385000 34.369842 113.948659 -0.000000 0.338572 0.411191 -0.125433 60.138849 161.189211 -0.000000 0.054767 0.221413 -0.360512
0.390000 34.793354 114.397860 -0.000000 0.338523 0.411226 -0.125435 60.072979 161.299045 -0.000000 0.054752 0.221389 -0.360522
0.395000 35.168956 114.874307 -0.000000 0.338501 0.411268 -0.125429 60.145195 161.538298 -0.000000 0.054736 0.221365 -0.360519
0.400000 35.434879 115.338523 -0.000000 0.338467 0.411328 -0.125425 60.346457 161.936318 -0.000000 0.054722 0.221323 -0.360529
0.405000 35.603102 115.740197 -0.000000 0.338449 0.411352 -0.125406 60.633256 162.418788 -0.000000 0.054699 0.221303 -0.360543
0.410000 35.641474 116.057975 -0.000000 0.338436 0.411392 -0.125433 60.861854 162.913636 -0.000000 0.054668 0.221300 -0.360539
0.415000 35.540575 116.277869 -0.000000 0.338424 0.411425 -0.125423 60.989445 163.377153 -0.000000 0.054631 0.221283 -0.360524
0.420000 35.293672 116.400452 -0.000000 0.338403 0.411467 -0.125410 61.054514 163.827306 -0.000000 0.054613 0.221236 -0.360505
0.425000 34.949881 116.422026 -0.000000 0.338376 0.411508 -0.125376 61.181092 164.287191 -0.000000 0.054597 0.221197 -0.360498
0.430000 34.552387 116.345066 -0.000000 0.338361 0.411547 -0.125357 61.433179 164.771878 -0.000000 0.054593 0.221160 -0.360487
